<?xml version="1.0" standalone="no"?>
<!DOCTYPE svg PUBLIC "-//W3C//DTD SVG 20010904//EN"
 "http://www.w3.org/TR/2001/REC-SVG-20010904/DTD/svg10.dtd">
<svg version="1.0" xmlns="http://www.w3.org/2000/svg"
 width="640.000000pt" height="640.000000pt" viewBox="0 0 640.000000 640.000000"
 preserveAspectRatio="xMidYMid meet">
<metadata>
Created by potrace 1.14, written by Peter Selinger 2001-2017
</metadata>
<g transform="translate(0.000000,640.000000) scale(0.100000,-0.100000)"
fill="#000000" stroke="none">
<path d="M3110 6045 c0 -8 9 -15 20 -15 20 0 20 -5 18 -162 -3 -162 -3 -163
-26 -166 -13 -2 -21 -9 -19 -15 2 -8 35 -13 90 -15 73 -2 87 0 87 13 0 8 -9
15 -20 15 -18 0 -20 7 -20 58 0 46 4 63 20 77 19 17 20 16 50 -46 32 -67 36
-89 20 -89 -5 0 -10 -7 -10 -15 0 -12 16 -15 85 -15 69 0 85 3 85 15 0 8 -8
15 -18 15 -14 0 -34 30 -75 111 l-56 112 37 48 c27 36 44 48 63 49 15 0 29 7
33 15 4 12 -3 15 -32 16 -20 0 -52 2 -69 5 -38 4 -47 -20 -13 -31 18 -6 14
-14 -42 -81 -34 -41 -65 -77 -70 -80 -5 -3 -8 32 -6 78 3 77 5 83 26 86 12 2
22 10 22 18 0 11 -19 14 -90 14 -73 0 -90 -3 -90 -15z"/>
<path d="M2865 6033 c-102 -12 -205 -37 -205 -49 0 -8 10 -14 25 -14 14 0 25
-5 25 -11 0 -6 9 -71 21 -146 21 -140 20 -163 -6 -163 -8 0 -15 -7 -15 -16 0
-13 8 -14 48 -8 115 16 253 42 258 47 3 3 3 24 -1 46 -5 31 -11 41 -26 41 -14
0 -19 -7 -19 -29 0 -36 -14 -47 -71 -55 -54 -8 -54 -8 -64 87 l-7 67 36 0 c29
0 36 -4 36 -20 0 -14 7 -20 21 -20 15 0 19 5 15 18 -2 9 -8 36 -11 60 -7 46
-35 60 -35 17 0 -14 -6 -25 -12 -25 -7 0 -23 -3 -34 -6 -20 -5 -23 0 -33 62
-7 37 -8 70 -4 74 4 4 27 10 51 13 41 5 43 4 56 -28 11 -27 19 -32 35 -28 15
4 19 11 15 27 -2 11 -6 31 -7 44 -1 23 -13 25 -92 15z"/>
<path d="M3988 5911 c-14 -44 -14 -50 -1 -55 26 -10 32 -7 48 28 15 32 18 33
46 23 16 -6 29 -18 28 -27 0 -8 -21 -76 -47 -150 -46 -132 -48 -135 -74 -132
-20 2 -28 -2 -28 -13 0 -8 1 -15 3 -15 1 0 42 -13 90 -30 104 -35 97 -34 97
-14 0 9 -9 18 -20 21 -11 3 -20 8 -20 12 0 16 96 300 102 301 4 0 19 -5 34
-10 24 -10 26 -14 20 -49 -5 -33 -3 -39 14 -44 23 -6 35 11 45 63 l6 35 -158
53 c-87 28 -161 52 -164 52 -3 0 -12 -22 -21 -49z"/>
<path d="M2390 5926 c-114 -32 -190 -61 -190 -73 0 -9 8 -11 24 -7 27 6 25 10
82 -169 38 -122 40 -135 19 -143 -14 -6 -22 -34 -10 -34 3 0 53 16 112 35 118
40 163 68 183 115 24 59 -24 120 -95 120 -13 0 -26 -6 -28 -12 -4 -8 -6 -7 -6
3 -1 9 6 19 13 22 24 9 47 64 40 92 -8 31 -49 65 -78 64 -11 0 -41 -6 -66 -13z
m46 -47 c4 -6 10 -27 15 -46 6 -30 4 -39 -17 -60 -37 -37 -55 -27 -75 41 -10
33 -16 63 -13 68 8 12 82 10 90 -3z m46 -150 c29 -16 50 -72 38 -103 -10 -27
-68 -63 -80 -49 -14 15 -50 137 -43 144 5 4 19 9 33 12 14 2 26 5 28 6 2 0 12
-4 24 -10z"/>
<path d="M4460 5775 c0 -8 5 -15 10 -15 25 0 5 -47 -102 -238 -26 -46 -34 -53
-53 -48 -14 4 -25 1 -28 -7 -6 -18 153 -101 167 -87 8 8 5 15 -9 26 -20 15
-19 15 10 72 31 60 58 73 79 40 7 -13 7 -30 -4 -65 -7 -26 -14 -66 -14 -88 -1
-38 2 -41 46 -65 37 -20 50 -22 60 -12 9 9 8 15 -7 26 -18 13 -18 16 -2 72 16
56 16 60 -1 95 l-19 37 34 -5 c40 -7 75 14 93 56 11 26 10 36 -7 68 -16 30
-40 48 -124 95 -110 61 -129 67 -129 43z m154 -96 c35 -27 35 -71 0 -106 -20
-20 -31 -24 -57 -19 -17 4 -35 10 -40 15 -9 9 48 131 62 131 4 0 20 -9 35 -21z"/>
<path d="M1883 5717 c-46 -22 -79 -45 -75 -49 5 -5 21 -4 35 1 19 8 25 7 22
-2 -3 -7 26 -72 64 -145 67 -130 68 -134 50 -150 -22 -19 -25 -32 -6 -32 11 0
253 115 266 126 3 2 -6 26 -19 54 -19 41 -26 48 -41 40 -15 -8 -16 -16 -8 -42
5 -18 9 -36 9 -40 0 -9 -74 -48 -90 -48 -5 0 -42 64 -81 141 -71 143 -72 148
-34 163 7 2 7 7 0 14 -7 7 -35 -2 -92 -31z"/>
<path d="M1555 5523 c-39 -21 -83 -67 -95 -99 -17 -45 -9 -151 11 -138 5 3 6
-1 4 -8 -7 -19 36 -75 81 -106 56 -37 112 -40 176 -8 87 43 127 133 98 221
-16 47 -84 123 -127 141 -43 18 -111 17 -148 -3z m78 -48 c20 -14 54 -49 75
-78 65 -89 80 -150 47 -187 -50 -56 -157 15 -221 147 -29 59 -26 103 9 128 30
21 47 19 90 -10z"/>
<path d="M4979 5411 c-134 -89 -251 -161 -264 -161 -8 0 -17 5 -20 10 -5 8
-11 7 -21 -1 -11 -9 -5 -19 37 -52 40 -32 53 -37 59 -26 6 8 4 19 -5 29 -13
15 -11 19 15 39 33 24 36 23 91 -23 36 -29 36 -31 24 -65 -7 -20 -18 -35 -24
-33 -31 7 -36 6 -36 -4 0 -6 29 -34 63 -63 45 -38 67 -50 74 -43 8 8 8 15 -1
25 -11 15 -4 40 88 301 25 72 26 67 -2 87 -22 16 -25 15 -78 -20z m-29 -107
c-11 -32 -23 -61 -26 -66 -5 -8 -74 39 -74 51 0 9 113 81 118 76 2 -2 -6 -30
-18 -61z"/>
<path d="M2932 4988 l-312 -313 -440 -3 -440 -3 0 -436 0 -437 -292 -292
c-161 -161 -291 -296 -290 -301 4 -9 145 -155 414 -430 l178 -183 0 -575 0
-575 150 0 150 0 0 638 0 637 -118 122 c-64 67 -170 176 -236 243 l-118 122
43 45 c24 25 128 130 232 234 l187 188 1 325 c1 179 2 336 3 349 l1 22 350 3
350 2 251 251 250 250 251 -250 250 -251 352 0 351 0 0 -348 0 -347 234 -234
235 -235 -240 -246 -239 -247 0 -637 0 -636 155 0 155 0 0 573 0 573 41 44
c23 25 116 122 208 215 91 94 208 213 259 266 l92 96 -295 294 -295 294 0 436
c0 406 -1 437 -17 444 -10 3 -208 5 -441 4 l-423 -3 -312 312 c-172 172 -314
312 -317 312 -3 0 -146 -141 -318 -312z"/>
<path d="M5225 5270 c-4 -6 -2 -17 5 -25 8 -10 -8 -50 -76 -180 -83 -160 -85
-167 -68 -186 9 -10 21 -19 26 -19 4 0 80 32 169 72 137 61 164 70 181 59 18
-11 38 -8 38 8 0 4 -19 27 -41 50 -28 29 -45 39 -52 32 -7 -7 -6 -15 3 -26 8
-9 9 -19 4 -24 -10 -8 -211 -101 -220 -101 -6 0 91 185 109 208 8 10 13 10 26
-2 10 -9 22 -12 30 -6 11 6 -1 25 -50 79 -66 73 -73 78 -84 61z"/>
<path d="M1131 5146 c-38 -38 -61 -69 -56 -76 5 -8 12 -6 26 6 19 17 23 14
134 -96 99 -98 112 -115 102 -131 -9 -14 -8 -21 2 -31 12 -11 13 -10 8 5 -4
10 -3 16 2 13 14 -9 133 116 121 128 -6 6 -17 3 -33 -12 -16 -15 -27 -18 -37
-12 -8 5 -12 10 -9 10 3 0 -44 50 -105 111 -61 61 -106 109 -100 105 11 -5 24
14 24 35 0 19 -18 7 -79 -55z"/>
<path d="M1459 5089 c-9 -17 -7 -25 12 -45 20 -22 22 -28 10 -46 -8 -13 -9
-24 -3 -30 7 -7 20 1 40 23 l30 33 -35 43 c-20 24 -37 43 -39 43 -2 0 -8 -9
-15 -21z"/>
<path d="M969 4963 c-1 -5 -1 -11 0 -15 0 -5 -3 -8 -8 -8 -11 0 -94 -111 -87
-117 3 -3 13 -2 23 2 19 9 65 14 58 7 -6 -6 9 -19 122 -106 92 -70 102 -80 92
-98 -19 -35 2 -34 32 2 53 63 81 109 74 120 -5 8 -13 6 -26 -6 -18 -16 -23
-13 -121 61 -56 43 -107 78 -114 78 -7 0 -11 4 -8 8 2 4 -3 12 -12 17 -13 7
-14 13 -5 29 10 20 6 33 -11 33 -4 0 -9 -3 -9 -7z"/>
<path d="M5565 4890 c-3 -6 -4 -19 0 -30 5 -16 -15 -33 -117 -102 -147 -99
-132 -92 -150 -74 -9 8 -20 11 -27 6 -10 -5 11 -42 74 -134 47 -69 90 -126 93
-126 4 0 24 10 45 23 34 21 36 24 24 42 -13 17 -18 17 -47 5 -27 -11 -33 -11
-41 1 -42 63 -51 82 -42 88 5 3 30 21 55 39 26 17 50 32 53 32 4 0 15 -10 25
-22 17 -21 17 -25 3 -40 -8 -10 -13 -24 -9 -33 4 -13 15 -9 56 21 27 20 50 39
50 43 0 15 -13 19 -34 11 -19 -7 -26 -3 -40 20 l-17 29 56 36 c30 19 57 35 59
35 2 0 16 -18 31 -39 l27 -40 -21 -22 c-45 -49 -11 -75 43 -34 l35 27 -79 118
c-83 124 -95 137 -105 120z"/>
<path d="M767 4650 c-21 -17 -53 -64 -103 -157 -7 -12 -10 -24 -6 -27 3 -3 0
-6 -7 -6 -8 0 -11 -6 -7 -16 3 -8 2 -12 -4 -9 -6 3 -10 2 -10 -4 0 -20 20 -22
28 -2 7 21 9 20 68 -11 229 -124 226 -121 220 -150 -10 -53 19 -28 64 55 56
102 68 133 69 174 2 91 -84 136 -147 76 -30 -28 -70 -48 -44 -22 18 20 15 63
-9 93 -25 32 -75 35 -112 6z m85 -95 c9 -21 4 -95 -7 -95 -4 0 -63 32 -102 57
-19 11 -21 17 -12 37 23 50 99 50 121 1z m153 -61 c33 -30 32 -71 -1 -115 -15
-19 -24 -27 -21 -18 4 12 -8 24 -46 44 -79 43 -80 43 -56 74 42 53 78 58 124
15z"/>
<path d="M5811 4511 c-7 -5 -11 -17 -7 -28 5 -16 -14 -28 -136 -86 -140 -65
-143 -66 -158 -47 -11 15 -19 17 -26 10 -8 -8 4 -43 44 -123 30 -62 58 -122
63 -135 10 -26 25 -24 87 7 30 15 31 18 18 36 -12 17 -18 18 -50 8 -36 -11
-37 -11 -57 29 -11 22 -18 45 -16 52 3 6 66 41 142 76 l137 64 18 -23 c26 -35
35 -9 13 41 -49 113 -58 128 -72 119z"/>
<path d="M3135 4386 c-132 -58 -154 -270 -39 -382 25 -23 60 -49 79 -56 53
-19 48 -29 -63 -141 -77 -78 -170 -145 -295 -210 -179 -95 -291 -193 -354
-313 -55 -103 -78 -255 -53 -343 16 -55 0 -71 -70 -71 -46 0 -61 -4 -69 -17
-5 -11 -8 -328 -7 -791 1 -675 3 -774 16 -782 44 -28 172 -62 250 -67 178 -11
307 49 424 200 78 101 142 315 134 449 l-3 53 -95 -1 c-75 -1 -117 -7 -200
-32 -208 -61 -323 -92 -345 -92 -17 0 -26 9 -34 31 -30 86 1 141 113 198 78
40 87 49 91 97 4 60 56 82 119 49 15 -8 29 -15 31 -15 1 0 5 20 7 45 3 25 11
52 18 60 16 20 84 20 100 0 7 -8 20 -15 29 -15 19 0 147 66 156 80 3 5 7 103
9 217 4 233 20 315 78 406 48 75 94 88 143 40 75 -74 105 -211 105 -474 l0
-189 77 -45 c87 -50 91 -51 107 -29 7 8 30 18 52 21 35 4 44 2 58 -18 9 -13
16 -40 16 -61 0 -38 17 -60 29 -39 12 18 64 29 91 19 31 -11 40 -25 40 -64 0
-37 14 -50 105 -99 90 -49 92 -51 100 -86 10 -44 -4 -126 -22 -133 -8 -4 -94
17 -192 45 -288 84 -404 104 -452 78 -18 -9 -20 -17 -14 -77 31 -325 148 -509
376 -589 105 -37 242 -37 349 0 41 15 81 34 88 44 9 13 12 188 12 794 0 611
-3 780 -12 786 -7 4 -40 8 -73 8 l-60 0 2 30 c1 17 4 71 5 120 3 116 -25 206
-96 313 -65 97 -155 172 -287 241 -183 95 -333 211 -398 305 l-29 42 64 23
c63 22 100 56 117 104 9 23 5 22 -49 -15 -39 -28 -54 -33 -102 -33 -122 1
-212 90 -212 210 0 55 27 116 66 150 41 35 25 46 -31 21z"/>
<path d="M556 3811 c-32 -54 -27 -53 -113 -31 -25 6 -31 5 -26 -6 5 -13 17
-18 35 -15 4 0 5 -6 2 -14 -4 -8 -1 -15 4 -15 24 0 22 -41 -3 -85 -15 -25 -25
-45 -23 -45 1 0 26 9 53 19 l50 20 41 -46 40 -46 -6 55 c-7 66 -4 78 18 78 10
1 32 9 50 19 l34 17 -55 13 -55 12 -9 60 -8 61 -29 -51z"/>
<path d="M5907 3850 c-3 -8 -10 -35 -14 -60 l-8 -45 -65 -11 -65 -11 58 -29
59 -29 -6 -48 c-4 -26 -9 -55 -13 -65 -3 -9 15 3 40 27 l46 44 43 -18 c24 -9
49 -21 56 -27 18 -15 15 -3 -14 54 -14 28 -22 54 -17 57 4 4 24 24 43 45 l35
38 -62 -7 -63 -7 -24 54 c-15 34 -26 48 -29 38z"/>
<path d="M523 3070 l-30 -95 -103 -3 -103 -3 81 -60 c45 -33 82 -61 82 -62 0
-1 -13 -43 -29 -92 -17 -49 -28 -91 -27 -92 2 -2 37 21 79 52 41 30 78 55 82
55 4 0 41 -25 82 -55 42 -31 78 -54 79 -52 2 2 -10 45 -28 96 -26 78 -29 94
-17 101 8 5 45 31 83 59 l69 51 -101 0 -100 0 -30 83 c-16 45 -31 89 -34 97
-3 8 -18 -28 -35 -80z"/>
<path d="M5866 3127 c-9 -21 -28 -63 -41 -94 l-25 -56 -103 7 -102 7 35 -32
c19 -18 54 -49 77 -69 l42 -38 -39 -91 c-21 -50 -35 -91 -32 -91 4 0 41 20 82
45 41 25 80 45 86 45 5 0 42 -27 82 -60 39 -33 73 -60 75 -60 2 0 -5 40 -16
89 -11 49 -17 96 -14 104 3 8 39 34 81 58 42 24 76 47 76 50 0 4 -44 10 -97
15 l-98 9 -26 100 -27 100 -16 -38z"/>
<path d="M5677 2290 c-37 -44 -45 -46 -85 -26 -15 7 -37 17 -50 20 -22 7 -21
6 8 -45 31 -51 31 -52 12 -73 -10 -11 -28 -32 -40 -45 -12 -14 -21 -26 -19
-27 2 -2 28 3 59 10 l57 13 30 -56 c32 -60 35 -58 46 21 l6 47 61 12 61 12
-57 29 -58 29 7 60 c4 32 5 59 2 59 -3 0 -21 -18 -40 -40z"/>
<path d="M648 2260 l-3 -62 -55 -21 -55 -21 57 -15 56 -15 7 -58 7 -59 25 33
c13 18 28 39 32 46 6 11 17 11 61 -2 30 -9 55 -16 58 -16 2 0 -13 22 -32 49
l-37 49 30 44 c16 23 28 44 27 46 -2 1 -24 -4 -50 -13 -53 -18 -57 -17 -96 37
l-29 40 -3 -62z"/>
<path d="M1117 1934 c-3 -4 -2 -14 3 -24 11 -21 8 -24 -107 -103 -126 -88
-144 -118 -127 -205 9 -42 73 -110 112 -118 54 -11 93 4 202 75 91 60 107 67
121 55 17 -15 39 -19 39 -6 0 16 -70 107 -83 107 -6 0 -10 -7 -8 -15 2 -8 5
-22 7 -30 3 -10 -30 -38 -96 -82 -80 -54 -109 -68 -139 -68 -78 0 -111 83 -56
140 31 33 188 140 204 140 5 0 14 -8 20 -17 7 -13 13 -15 21 -7 8 8 -3 31 -40
88 -48 73 -59 83 -73 70z"/>
<path d="M5246 1770 c-31 -39 -46 -66 -42 -77 6 -14 11 -12 36 12 l28 27 44
-33 c24 -19 58 -46 76 -61 l33 -28 -150 0 -150 0 -36 -46 c-19 -26 -35 -50
-35 -55 0 -17 21 -20 36 -5 8 9 17 16 19 16 2 0 28 -19 57 -43 29 -23 83 -65
120 -92 63 -47 67 -52 61 -82 -10 -58 19 -42 83 49 33 47 22 70 -16 33 l-28
-27 -83 63 c-46 35 -90 70 -99 77 -12 11 16 12 166 9 168 -4 182 -3 192 14 7
10 12 20 12 22 0 2 -63 52 -139 111 -133 103 -139 109 -129 132 8 16 8 28 1
35 -6 6 -25 -11 -57 -51z"/>
<path d="M1446 1434 c-35 -33 -37 -38 -22 -52 14 -15 18 -14 46 6 35 26 47 22
97 -30 l33 -34 -163 -48 c-89 -27 -178 -55 -197 -63 l-35 -15 115 -109 115
-109 40 40 c37 38 39 41 22 57 -16 16 -18 16 -46 -5 -17 -12 -34 -22 -39 -22
-10 0 -97 88 -91 94 2 2 86 27 186 56 100 29 184 59 187 66 4 10 -180 194
-202 201 -4 1 -24 -14 -46 -33z"/>
<path d="M4772 1263 c-20 -18 -20 -18 45 -196 63 -172 65 -178 47 -198 -13
-14 -15 -22 -6 -31 8 -8 21 -2 50 20 58 46 68 60 48 68 -9 3 -23 1 -31 -6 -11
-10 -17 -5 -30 26 l-16 38 43 38 c50 44 57 45 92 17 25 -19 26 -23 12 -38 -12
-13 -13 -20 -4 -29 11 -11 27 -1 118 76 28 24 32 33 23 43 -8 8 -16 9 -25 2
-10 -8 -54 16 -168 88 -85 54 -160 98 -166 98 -7 1 -21 -7 -32 -16z m124 -147
l48 -28 -32 -29 c-18 -16 -36 -29 -40 -29 -10 0 -61 128 -54 134 2 3 10 0 17
-7 7 -7 34 -25 61 -41z"/>
<path d="M1836 1145 c-3 -8 3 -19 12 -24 16 -9 15 -15 -11 -62 -16 -28 -53
-91 -83 -140 -49 -79 -58 -88 -79 -83 -43 11 -36 -15 12 -42 27 -15 65 -38 86
-52 95 -63 178 -69 225 -17 29 34 28 63 -3 109 -14 20 -25 38 -25 40 0 2 11 1
25 -2 60 -11 114 44 100 100 -8 32 -43 64 -125 115 -108 67 -127 75 -134 58z
m154 -113 c47 -38 0 -129 -60 -117 -49 9 -52 26 -14 83 19 28 39 52 44 52 4 0
18 -8 30 -18z m-88 -149 c17 -17 28 -37 28 -54 0 -33 -36 -79 -65 -83 -23 -4
-75 20 -75 34 0 12 71 130 78 130 3 0 19 -12 34 -27z"/>
<path d="M4321 975 c-79 -41 -146 -77 -149 -80 -10 -10 37 -95 53 -95 22 0 29
25 17 60 -10 28 -9 31 19 46 17 8 32 14 34 12 11 -13 135 -273 135 -283 0 -8
-7 -18 -17 -23 -10 -6 -14 -16 -10 -26 6 -14 19 -10 97 29 91 46 113 73 54 67
-29 -3 -32 2 -98 139 -66 135 -68 142 -51 155 27 20 36 18 65 -16 23 -26 28
-29 44 -17 17 12 17 15 -5 60 -13 26 -28 47 -33 46 -6 0 -76 -34 -155 -74z"/>
<path d="M2310 885 c0 -7 8 -18 17 -23 15 -9 14 -18 -16 -108 -67 -199 -71
-206 -97 -201 -17 3 -24 0 -24 -12 0 -12 36 -29 143 -64 78 -26 146 -47 150
-47 11 0 38 72 33 87 -9 22 -42 14 -54 -12 -6 -14 -18 -25 -25 -25 -18 0 -80
21 -90 30 -8 8 19 116 34 134 4 4 21 5 37 1 25 -5 30 -11 29 -33 -1 -16 4 -27
13 -29 21 -4 57 104 40 121 -8 8 -15 5 -28 -12 -15 -20 -22 -22 -45 -13 -15 6
-27 15 -27 20 0 26 43 121 54 121 8 0 30 -7 51 -16 35 -14 37 -17 31 -48 -6
-32 4 -46 34 -46 8 0 35 88 29 94 -5 5 -273 96 -282 96 -4 0 -7 -7 -7 -15z"/>
<path d="M3829 797 c-27 -14 -52 -37 -64 -60 -18 -34 -19 -39 -5 -79 19 -54
60 -82 144 -98 36 -7 69 -17 74 -24 37 -45 11 -94 -55 -103 -40 -5 -41 -4 -54
31 -9 24 -18 35 -27 31 -7 -3 -20 -5 -28 -5 -20 0 -8 -70 14 -88 36 -28 161 0
215 48 28 25 32 35 32 79 0 73 -35 106 -135 127 -92 19 -105 30 -101 86 1 17
48 48 71 48 6 0 18 -16 27 -35 29 -61 77 -41 61 26 l-10 39 -58 0 c-40 0 -70
-7 -101 -23z"/>
<path d="M2790 741 c0 -14 6 -21 20 -21 25 0 25 -15 2 -195 -16 -121 -19 -130
-39 -133 -13 -2 -23 -9 -23 -16 0 -9 23 -16 73 -20 39 -4 80 -9 90 -12 12 -4
17 0 17 15 0 14 -6 21 -19 21 -16 0 -17 6 -13 53 4 47 23 87 42 87 4 0 18 -28
30 -62 13 -35 25 -69 27 -75 3 -7 -2 -13 -11 -13 -31 0 -17 -29 17 -34 131
-21 161 -15 118 22 -17 15 -101 215 -101 240 0 17 87 81 115 85 28 3 44 21 28
30 -4 3 -36 8 -70 12 -52 6 -63 4 -63 -8 0 -8 8 -18 17 -21 13 -6 3 -20 -52
-76 -38 -39 -73 -70 -77 -70 -6 0 -3 63 8 128 4 26 10 32 29 32 15 0 25 6 25
14 0 10 -21 16 -77 20 -43 4 -86 10 -95 12 -13 4 -18 0 -18 -15z"/>
<path d="M3455 733 c-78 -6 -105 -14 -105 -28 0 -9 10 -15 24 -15 27 0 30 -18
42 -217 7 -111 7 -113 -14 -113 -13 0 -22 -6 -22 -15 0 -12 12 -15 53 -14 123
2 198 26 121 39 -16 3 -29 10 -30 15 -3 54 -16 221 -21 263 -5 47 -3 52 14 52
25 0 33 8 26 26 -3 8 -15 13 -27 12 -11 -1 -39 -3 -61 -5z"/>
</g>
</svg>
